<?xml version="1.0" encoding="UTF-8" standalone="no"?>
<!DOCTYPE svg PUBLIC "-//W3C//DTD SVG 1.1//EN"
 "http://www.w3.org/Graphics/SVG/1.1/DTD/svg11.dtd">
<!-- Generated by graphviz version 2.40.1 (20161225.0304)
 -->
<!-- Title: G Pages: 1 -->
<svg width="728pt" height="217pt"
 viewBox="0.00 0.00 728.20 217.20" xmlns="http://www.w3.org/2000/svg" xmlns:xlink="http://www.w3.org/1999/xlink">
<g id="graph0" class="graph" transform="scale(1 1) rotate(0) translate(21.6 195.6)">
<title>G</title>
<polygon fill="#111111" stroke="transparent" points="-21.6,21.6 -21.6,-195.6 706.6,-195.6 706.6,21.6 -21.6,21.6"/>
<!-- action.js -->
<g id="node1" class="node">
<title>action.js</title>
<path fill="none" stroke="#cfffac" d="M677.3333,-123C677.3333,-123 622.6667,-123 622.6667,-123 618.8333,-123 615,-119.1667 615,-115.3333 615,-115.3333 615,-107.6667 615,-107.6667 615,-103.8333 618.8333,-100 622.6667,-100 622.6667,-100 677.3333,-100 677.3333,-100 681.1667,-100 685,-103.8333 685,-107.6667 685,-107.6667 685,-115.3333 685,-115.3333 685,-119.1667 681.1667,-123 677.3333,-123"/>
<text text-anchor="middle" x="650" y="-107.8" font-family="Arial" font-size="14.00" fill="#cfffac">action.js</text>
</g>
<!-- app.model.js -->
<g id="node2" class="node">
<title>app.model.js</title>
<path fill="none" stroke="#c6c5fe" d="M193.3333,-105C193.3333,-105 109.6667,-105 109.6667,-105 105.8333,-105 102,-101.1667 102,-97.3333 102,-97.3333 102,-89.6667 102,-89.6667 102,-85.8333 105.8333,-82 109.6667,-82 109.6667,-82 193.3333,-82 193.3333,-82 197.1667,-82 201,-85.8333 201,-89.6667 201,-89.6667 201,-97.3333 201,-97.3333 201,-101.1667 197.1667,-105 193.3333,-105"/>
<text text-anchor="middle" x="151.5" y="-89.8" font-family="Arial" font-size="14.00" fill="#c6c5fe">app.model.js</text>
</g>
<!-- controller.js -->
<g id="node3" class="node">
<title>controller.js</title>
<path fill="none" stroke="#c6c5fe" d="M426.3333,-105C426.3333,-105 352.6667,-105 352.6667,-105 348.8333,-105 345,-101.1667 345,-97.3333 345,-97.3333 345,-89.6667 345,-89.6667 345,-85.8333 348.8333,-82 352.6667,-82 352.6667,-82 426.3333,-82 426.3333,-82 430.1667,-82 434,-85.8333 434,-89.6667 434,-89.6667 434,-97.3333 434,-97.3333 434,-101.1667 430.1667,-105 426.3333,-105"/>
<text text-anchor="middle" x="389.5" y="-89.8" font-family="Arial" font-size="14.00" fill="#c6c5fe">controller.js</text>
</g>
<!-- app.model.js&#45;&gt;controller.js -->
<g id="edge1" class="edge">
<title>app.model.js&#45;&gt;controller.js</title>
<path fill="none" stroke="#757575" d="M201.1029,-93.5C240.0784,-93.5 294.3207,-93.5 334.5987,-93.5"/>
<polygon fill="#757575" stroke="#757575" points="334.7804,-97.0001 344.7804,-93.5 334.7804,-90.0001 334.7804,-97.0001"/>
</g>
<!-- render.js -->
<g id="node4" class="node">
<title>render.js</title>
<path fill="none" stroke="#c6c5fe" d="M301.3333,-65C301.3333,-65 244.6667,-65 244.6667,-65 240.8333,-65 237,-61.1667 237,-57.3333 237,-57.3333 237,-49.6667 237,-49.6667 237,-45.8333 240.8333,-42 244.6667,-42 244.6667,-42 301.3333,-42 301.3333,-42 305.1667,-42 309,-45.8333 309,-49.6667 309,-49.6667 309,-57.3333 309,-57.3333 309,-61.1667 305.1667,-65 301.3333,-65"/>
<text text-anchor="middle" x="273" y="-49.8" font-family="Arial" font-size="14.00" fill="#c6c5fe">render.js</text>
</g>
<!-- app.model.js&#45;&gt;render.js -->
<g id="edge2" class="edge">
<title>app.model.js&#45;&gt;render.js</title>
<path fill="none" stroke="#757575" d="M186.6428,-81.9303C199.6141,-77.66 214.4917,-72.762 228.2026,-68.2481"/>
<polygon fill="#757575" stroke="#757575" points="229.5321,-71.4953 237.9361,-65.0437 227.3431,-64.8463 229.5321,-71.4953"/>
</g>
<!-- controller.js&#45;&gt;action.js -->
<g id="edge3" class="edge">
<title>controller.js&#45;&gt;action.js</title>
<path fill="none" stroke="#757575" d="M434.2815,-96.5943C481.9867,-99.8906 557.0785,-105.0793 604.9037,-108.3839"/>
<polygon fill="#757575" stroke="#757575" points="604.7518,-111.8817 614.9693,-109.0795 605.2344,-104.8983 604.7518,-111.8817"/>
</g>
<!-- email.model.js -->
<g id="node5" class="node">
<title>email.model.js</title>
<path fill="none" stroke="#c6c5fe" d="M571.3333,-144C571.3333,-144 477.6667,-144 477.6667,-144 473.8333,-144 470,-140.1667 470,-136.3333 470,-136.3333 470,-128.6667 470,-128.6667 470,-124.8333 473.8333,-121 477.6667,-121 477.6667,-121 571.3333,-121 571.3333,-121 575.1667,-121 579,-124.8333 579,-128.6667 579,-128.6667 579,-136.3333 579,-136.3333 579,-140.1667 575.1667,-144 571.3333,-144"/>
<text text-anchor="middle" x="524.5" y="-128.8" font-family="Arial" font-size="14.00" fill="#c6c5fe">email.model.js</text>
</g>
<!-- controller.js&#45;&gt;email.model.js -->
<g id="edge4" class="edge">
<title>controller.js&#45;&gt;email.model.js</title>
<path fill="none" stroke="#757575" d="M429.6389,-105.0957C443.6583,-109.1457 459.5731,-113.7433 474.3079,-118.0001"/>
<polygon fill="#757575" stroke="#757575" points="473.704,-121.4687 484.2826,-120.8816 475.6469,-114.7437 473.704,-121.4687"/>
</g>
<!-- util.js -->
<g id="node6" class="node">
<title>util.js</title>
<path fill="none" stroke="#cfffac" d="M669.3333,-174C669.3333,-174 630.6667,-174 630.6667,-174 626.8333,-174 623,-170.1667 623,-166.3333 623,-166.3333 623,-158.6667 623,-158.6667 623,-154.8333 626.8333,-151 630.6667,-151 630.6667,-151 669.3333,-151 669.3333,-151 673.1667,-151 677,-154.8333 677,-158.6667 677,-158.6667 677,-166.3333 677,-166.3333 677,-170.1667 673.1667,-174 669.3333,-174"/>
<text text-anchor="middle" x="650" y="-158.8" font-family="Arial" font-size="14.00" fill="#cfffac">util.js</text>
</g>
<!-- controller.js&#45;&gt;util.js -->
<g id="edge5" class="edge">
<title>controller.js&#45;&gt;util.js</title>
<path fill="none" stroke="#757575" d="M400.7012,-105.3634C415.1471,-119.7567 441.7883,-143.354 470,-153.5 516.8958,-170.3655 575.1154,-169.7283 612.4144,-166.8392"/>
<polygon fill="#757575" stroke="#757575" points="613.1592,-170.2877 622.8175,-165.9325 612.5513,-163.3141 613.1592,-170.2877"/>
</g>
<!-- render.js&#45;&gt;controller.js -->
<g id="edge11" class="edge">
<title>render.js&#45;&gt;controller.js</title>
<path fill="none" stroke="#757575" d="M306.6966,-65.0697C319.0133,-69.2986 333.1226,-74.143 346.1629,-78.6203"/>
<polygon fill="#757575" stroke="#757575" points="345.2845,-82.0192 355.8791,-81.9563 347.5577,-75.3986 345.2845,-82.0192"/>
</g>
<!-- view.js -->
<g id="node8" class="node">
<title>view.js</title>
<path fill="none" stroke="#c6c5fe" d="M411.3333,-64C411.3333,-64 367.6667,-64 367.6667,-64 363.8333,-64 360,-60.1667 360,-56.3333 360,-56.3333 360,-48.6667 360,-48.6667 360,-44.8333 363.8333,-41 367.6667,-41 367.6667,-41 411.3333,-41 411.3333,-41 415.1667,-41 419,-44.8333 419,-48.6667 419,-48.6667 419,-56.3333 419,-56.3333 419,-60.1667 415.1667,-64 411.3333,-64"/>
<text text-anchor="middle" x="389.5" y="-48.8" font-family="Arial" font-size="14.00" fill="#c6c5fe">view.js</text>
</g>
<!-- render.js&#45;&gt;view.js -->
<g id="edge12" class="edge">
<title>render.js&#45;&gt;view.js</title>
<path fill="none" stroke="#757575" d="M309.2227,-53.1891C322.0828,-53.0787 336.6226,-52.9539 349.7605,-52.8411"/>
<polygon fill="#757575" stroke="#757575" points="349.9678,-56.3396 359.9374,-52.7538 349.9077,-49.3398 349.9678,-56.3396"/>
</g>
<!-- email.model.js&#45;&gt;action.js -->
<g id="edge6" class="edge">
<title>email.model.js&#45;&gt;action.js</title>
<path fill="none" stroke="#757575" d="M579.181,-123.3502C587.7278,-121.92 596.4777,-120.4559 604.7821,-119.0663"/>
<polygon fill="#757575" stroke="#757575" points="605.362,-122.5181 614.6472,-117.4156 604.2066,-115.6141 605.362,-122.5181"/>
</g>
<!-- email.model.js&#45;&gt;util.js -->
<g id="edge7" class="edge">
<title>email.model.js&#45;&gt;util.js</title>
<path fill="none" stroke="#757575" d="M572.6627,-144.013C586.0803,-147.2204 600.44,-150.653 613.0989,-153.679"/>
<polygon fill="#757575" stroke="#757575" points="612.2963,-157.0857 622.836,-156.0066 613.9238,-150.2775 612.2963,-157.0857"/>
</g>
<!-- index.js -->
<g id="node7" class="node">
<title>index.js</title>
<path fill="none" stroke="#c6c5fe" d="M58.3333,-105C58.3333,-105 7.6667,-105 7.6667,-105 3.8333,-105 0,-101.1667 0,-97.3333 0,-97.3333 0,-89.6667 0,-89.6667 0,-85.8333 3.8333,-82 7.6667,-82 7.6667,-82 58.3333,-82 58.3333,-82 62.1667,-82 66,-85.8333 66,-89.6667 66,-89.6667 66,-97.3333 66,-97.3333 66,-101.1667 62.1667,-105 58.3333,-105"/>
<text text-anchor="middle" x="33" y="-89.8" font-family="Arial" font-size="14.00" fill="#c6c5fe">index.js</text>
</g>
<!-- index.js&#45;&gt;app.model.js -->
<g id="edge8" class="edge">
<title>index.js&#45;&gt;app.model.js</title>
<path fill="none" stroke="#757575" d="M66.0089,-93.5C73.9828,-93.5 82.7514,-93.5 91.5408,-93.5"/>
<polygon fill="#757575" stroke="#757575" points="91.8221,-97.0001 101.8221,-93.5 91.822,-90.0001 91.8221,-97.0001"/>
</g>
<!-- index.js&#45;&gt;render.js -->
<g id="edge10" class="edge">
<title>index.js&#45;&gt;render.js</title>
<path fill="none" stroke="#757575" d="M66.0207,-82.0947C77.316,-78.5575 90.1035,-74.9493 102,-72.5 143.7592,-63.9024 192.1107,-58.9855 226.7218,-56.3178"/>
<polygon fill="#757575" stroke="#757575" points="227.2838,-59.7859 236.9996,-55.5604 226.7694,-52.8049 227.2838,-59.7859"/>
</g>
<!-- index.js&#45;&gt;email.model.js -->
<g id="edge9" class="edge">
<title>index.js&#45;&gt;email.model.js</title>
<path fill="none" stroke="#757575" d="M64.8892,-105.044C76.4281,-108.7287 89.6567,-112.3938 102,-114.5 227.226,-135.8682 376.1899,-136.5738 459.5924,-134.7868"/>
<polygon fill="#757575" stroke="#757575" points="459.764,-138.2838 469.6796,-134.5515 459.6007,-131.2857 459.764,-138.2838"/>
</g>
<!-- view.js&#45;&gt;email.model.js -->
<g id="edge13" class="edge">
<title>view.js&#45;&gt;email.model.js</title>
<path fill="none" stroke="#757575" d="M417.1433,-64.0801C422.8031,-66.685 428.6596,-69.5553 434,-72.5 457.195,-85.2897 482.1912,-102.1147 500.024,-114.6925"/>
<polygon fill="#757575" stroke="#757575" points="498.474,-117.8857 508.6489,-120.8389 502.5364,-112.1851 498.474,-117.8857"/>
</g>
<!-- style.css -->
<g id="node9" class="node">
<title>style.css</title>
<path fill="none" stroke="#cfffac" d="M553.3333,-64C553.3333,-64 495.6667,-64 495.6667,-64 491.8333,-64 488,-60.1667 488,-56.3333 488,-56.3333 488,-48.6667 488,-48.6667 488,-44.8333 491.8333,-41 495.6667,-41 495.6667,-41 553.3333,-41 553.3333,-41 557.1667,-41 561,-44.8333 561,-48.6667 561,-48.6667 561,-56.3333 561,-56.3333 561,-60.1667 557.1667,-64 553.3333,-64"/>
<text text-anchor="middle" x="524.5" y="-48.8" font-family="Arial" font-size="14.00" fill="#cfffac">style.css</text>
</g>
<!-- view.js&#45;&gt;style.css -->
<g id="edge14" class="edge">
<title>view.js&#45;&gt;style.css</title>
<path fill="none" stroke="#757575" d="M419.1263,-52.5C436.2322,-52.5 458.136,-52.5 477.5378,-52.5"/>
<polygon fill="#757575" stroke="#757575" points="477.7138,-56.0001 487.7138,-52.5 477.7137,-49.0001 477.7138,-56.0001"/>
</g>
<!-- text.js -->
<g id="node10" class="node">
<title>text.js</title>
<path fill="none" stroke="#cfffac" d="M543.8333,-23C543.8333,-23 505.1667,-23 505.1667,-23 501.3333,-23 497.5,-19.1667 497.5,-15.3333 497.5,-15.3333 497.5,-7.6667 497.5,-7.6667 497.5,-3.8333 501.3333,0 505.1667,0 505.1667,0 543.8333,0 543.8333,0 547.6667,0 551.5,-3.8333 551.5,-7.6667 551.5,-7.6667 551.5,-15.3333 551.5,-15.3333 551.5,-19.1667 547.6667,-23 543.8333,-23"/>
<text text-anchor="middle" x="524.5" y="-7.8" font-family="Arial" font-size="14.00" fill="#cfffac">text.js</text>
</g>
<!-- view.js&#45;&gt;text.js -->
<g id="edge15" class="edge">
<title>view.js&#45;&gt;text.js</title>
<path fill="none" stroke="#757575" d="M419.1263,-43.5024C439.2277,-37.3975 465.9546,-29.2805 487.461,-22.7489"/>
<polygon fill="#757575" stroke="#757575" points="488.6878,-26.0342 497.2391,-19.7792 486.6536,-19.3363 488.6878,-26.0342"/>
</g>
</g>
</svg>
